<?xml version="1.0" standalone="no"?>
<!DOCTYPE svg PUBLIC "-//W3C//DTD SVG 20010904//EN"
 "http://www.w3.org/TR/2001/REC-SVG-20010904/DTD/svg10.dtd">
<svg version="1.0" xmlns="http://www.w3.org/2000/svg"
 width="300.000000pt" height="300.000000pt" viewBox="0 0 300.000000 300.000000"
 preserveAspectRatio="xMidYMid meet">
<metadata>
Created by potrace 1.14, written by Peter Selinger 2001-2017
</metadata>
<g transform="translate(0.000000,300.000000) scale(0.100000,-0.100000)"
fill="#000000" stroke="none">
<path d="M1738 2921 c-128 -64 -516 -425 -729 -677 -89 -105 -233 -298 -278
-371 -40 -65 -88 -194 -110 -297 l-17 -79 -84 144 c-104 177 -228 365 -265
402 -51 50 -119 34 -192 -46 -51 -56 -67 -103 -59 -175 14 -118 166 -534 272
-743 30 -58 54 -118 54 -132 0 -57 32 -186 59 -242 34 -69 106 -146 196 -210
36 -26 76 -67 98 -98 44 -67 99 -113 197 -166 179 -96 348 -145 556 -161 570
-43 1060 174 1264 561 28 53 48 77 98 113 118 87 149 174 139 395 -2 69 -13
158 -22 196 l-17 70 46 254 c62 340 64 371 37 460 -17 56 -32 82 -74 126 -43
47 -59 57 -94 62 -55 7 -98 -11 -123 -53 -27 -43 -82 -206 -126 -374 -19 -74
-37 -142 -40 -150 -3 -8 -43 75 -88 185 -105 251 -197 460 -243 548 -54 103
-83 101 -242 -18 -40 -30 -74 -55 -77 -55 -2 0 -1 92 3 204 7 220 -1 282 -39
324 -26 27 -51 27 -100 3z m67 -126 c3 -27 -3 -183 -14 -345 -39 -556 -44
-657 -37 -676 6 -16 9 -17 16 -4 13 24 47 202 70 365 l21 150 37 33 c42 37
173 129 196 138 17 7 40 -36 141 -262 120 -268 255 -616 300 -769 63 -218 112
-452 99 -473 -33 -53 -245 -180 -440 -264 l-124 -53 0 -47 c0 -94 -39 -139
-146 -172 -20 -6 -22 -2 -28 65 -15 150 -45 156 -54 10 -5 -103 6 -93 -119
-111 -112 -16 -105 -19 -136 69 -34 97 -57 123 -57 65 0 -22 7 -64 15 -94 8
-30 15 -56 15 -57 0 -2 -31 -3 -69 -3 -102 0 -129 28 -146 151 l-7 47 -126 12
c-182 17 -343 47 -450 82 -50 17 -92 34 -92 37 0 4 16 7 36 7 53 0 94 48 94
108 0 37 -5 48 -31 70 -21 18 -42 26 -70 26 l-39 0 0 138 c0 286 23 493 71
642 21 64 132 273 171 321 11 13 17 18 13 11 -11 -21 15 -80 46 -107 74 -61
179 4 179 111 0 49 -62 114 -109 114 -17 0 -31 4 -31 8 0 17 356 376 494 500
163 145 287 236 298 219 4 -7 10 -34 13 -62z m1038 -594 c16 -14 39 -44 50
-66 39 -71 24 -253 -48 -606 l-6 -25 -39 36 c-47 43 -48 53 -25 217 23 171 35
321 27 343 -6 17 -51 -213 -88 -457 -3 -18 -6 -33 -8 -33 -19 0 -136 65 -133
74 2 6 42 125 88 264 46 139 92 262 101 272 21 23 41 18 81 -19z m-2626 -228
c59 -75 313 -482 313 -503 0 -5 -18 -19 -40 -30 -22 -11 -55 -34 -74 -50 l-34
-30 -67 172 c-67 174 -145 351 -152 345 -2 -2 40 -129 92 -282 l95 -277 -15
-44 c-8 -25 -15 -55 -16 -67 0 -12 -4 -31 -8 -42 -6 -15 -13 -3 -33 55 -15 41
-54 151 -87 245 -73 202 -111 335 -111 390 0 86 96 169 137 118z m787 -42 c-3
-3 -15 6 -27 18 l-22 24 27 -19 c14 -10 24 -21 22 -23z m1783 -513 c-3 -8 -6
-5 -6 6 -1 11 2 17 5 13 3 -3 4 -12 1 -19z m-110 -20 c-3 -8 -6 -5 -6 6 -1 11
2 17 5 13 3 -3 4 -12 1 -19z m120 -70 c-2 -13 -4 -5 -4 17 -1 22 1 32 4 23 2
-10 2 -28 0 -40z m-83 -15 c9 -18 14 -33 12 -33 -6 0 -36 55 -36 66 0 11 5 3
24 -33z m-2177 -115 c-2 -24 -4 -7 -4 37 0 44 2 63 4 43 2 -21 2 -57 0 -80z
m2236 54 c4 9 6 9 6 1 2 -22 -16 -23 -35 0 l-19 22 21 -18 c17 -14 23 -15 27
-5z m-2036 -728 c-3 -3 -12 -4 -19 -1 -8 3 -5 6 6 6 11 1 17 -2 13 -5z m40
-10 c-3 -3 -12 -4 -19 -1 -8 3 -5 6 6 6 11 1 17 -2 13 -5z m80 -20 c-3 -3 -12
-4 -19 -1 -8 3 -5 6 6 6 11 1 17 -2 13 -5z m90 -20 c-3 -3 -12 -4 -19 -1 -8 3
-5 6 6 6 11 1 17 -2 13 -5z m56 -11 c-7 -2 -19 -2 -25 0 -7 3 -2 5 12 5 14 0
19 -2 13 -5z m60 -10 c-7 -2 -19 -2 -25 0 -7 3 -2 5 12 5 14 0 19 -2 13 -5z
m70 -10 c-7 -2 -21 -2 -30 0 -10 3 -4 5 12 5 17 0 24 -2 18 -5z m84 -23 c3
-10 2 -11 -4 -4 -4 6 -15 14 -23 17 -11 5 -9 6 4 4 11 -1 21 -9 23 -17z m64
-117 c13 -16 12 -17 -3 -4 -17 13 -22 21 -14 21 2 0 10 -8 17 -17z m40 -30
c13 -16 12 -17 -3 -4 -17 13 -22 21 -14 21 2 0 10 -8 17 -17z m116 -49 c-3 -3
-12 -4 -19 -1 -8 3 -5 6 6 6 11 1 17 -2 13 -5z m50 -10 c-3 -3 -12 -4 -19 -1
-8 3 -5 6 6 6 11 1 17 -2 13 -5z m191 -11 c-27 -2 -69 -2 -95 0 -27 2 -5 3 47
3 52 0 74 -1 48 -3z"/>
<path d="M2030 1681 c-155 -48 -248 -202 -221 -368 15 -93 68 -218 104 -249
59 -50 112 -67 191 -62 192 13 330 185 297 371 -36 205 -217 355 -371 308z"/>
<path d="M1082 1650 c-105 -22 -216 -109 -268 -212 -102 -200 9 -510 216 -607
48 -22 67 -25 145 -24 152 2 265 62 332 174 127 214 54 507 -154 616 -98 52
-189 69 -271 53z"/>
</g>
</svg>
